<svg width="957" height="613" viewBox="0 0 957 613" fill="none" xmlns="http://www.w3.org/2000/svg">
<g clip-path="url(#clip0_1_5)">
<path d="M957 0H0V613H957V0Z" fill="#002233"/>
<path d="M0 534.5L15.5 528L31.5 519C64 498.854 91.4467 456.889 136.957 447.49C182.574 438.091 227.872 458.933 273.489 478.344C319 497.756 364.723 515.737 410.234 516.146C455.851 516.453 501.149 499.084 546.766 476.301C592.277 453.416 638 425.218 683.511 430.837C729.128 436.456 774.426 475.892 820.043 497.756C865.553 519.518 910.5 528.5 933 531L943.5 532.5L950.5 533.5L957 534.5V615.554H934.138C911.277 615.554 865.553 615.554 820.043 615.554C774.426 615.554 729.128 615.554 683.511 615.554C638 615.554 592.277 615.554 546.766 615.554C501.149 615.554 455.851 615.554 410.234 615.554C364.723 615.554 319 615.554 273.489 615.554C227.872 615.554 182.574 615.554 136.957 615.554C91.4467 615.554 45.7233 615.554 22.8617 615.554H0V534.5Z" fill="#0066FF"/>
</g>
<defs>
<clipPath id="clip0_1_5">
<rect width="957" height="613" fill="white"/>
</clipPath>
</defs>
</svg>
